<?xml version="1.0"?>
<svg xmlns="http://www.w3.org/2000/svg" id="Layer_1" height="512px" viewBox="0 0 512 512" width="512px" data-name="Layer 1"><g><path d="m67.656 244.838a8.91 8.91 0 0 0 6.8 3.149h340.21l19.788-120.582h-343.136a8.9 8.9 0 0 0 -8.81 7.483l-16.858 102.725a8.912 8.912 0 0 0 2.006 7.225zm332.655-104.756a5.5 5.5 0 1 1 -5.5 5.5 5.506 5.506 0 0 1 5.5-5.5zm-89.28 1h71.78a5 5 0 1 1 0 10h-71.78a5 5 0 0 1 0-10zm-42.22 0h22.769a5 5 0 0 1 0 10h-22.769a5 5 0 0 1 0-10zm-169.526 60.555 5.524-33.664a17.793 17.793 0 0 1 17.622-14.966h111.356a17.858 17.858 0 0 1 17.621 20.749l-5.524 33.664a17.8 17.8 0 0 1 -17.622 14.966h-111.356a17.857 17.857 0 0 1 -17.621-20.749z" data-original="#000000" class="active-path" data-old_color="#000000" fill="#FFFFFF"/><path d="m106.252 362.357a25 25 0 0 0 23.717 32.906h31.74l13.812-50h-45.552a24.968 24.968 0 0 0 -23.717 17.094z" data-original="#000000" class="active-path" data-old_color="#000000" fill="#FFFFFF"/><path d="m236.016 205.8 5.523-33.663a7.856 7.856 0 0 0 -7.752-9.13h-77.814l-7.883 49.379h80.172a7.83 7.83 0 0 0 7.754-6.586z" data-original="#000000" class="active-path" data-old_color="#000000" fill="#FFFFFF"/><path d="m116.906 212.386h21.058l7.882-49.379h-23.415a7.83 7.83 0 0 0 -7.754 6.585l-5.524 33.664a7.858 7.858 0 0 0 7.753 9.13z" data-original="#000000" class="active-path" data-old_color="#000000" fill="#FFFFFF"/><path d="m197.434 266.048 2.308-8.061h-100.908l-50.946 187.276h71.192a37.963 37.963 0 0 0 36.491-27.778l3.376-12.222h-28.978a35 35 0 0 1 0-70h48.315l2.817-10.2a35.8 35.8 0 0 1 16.333-59.014z" data-original="#000000" class="active-path" data-old_color="#000000" fill="#FFFFFF"/><path d="m56.62 230.891 14.18-86.391h-11.226a8.9 8.9 0 0 0 -8.811 7.483l-11.246 68.534a8.928 8.928 0 0 0 8.811 10.374z" data-original="#000000" class="active-path" data-old_color="#000000" fill="#FFFFFF"/><path d="m206.24 271.62a5 5 0 0 1 -3.884 3.537 25.795 25.795 0 0 0 -12.328 44.648 5 5 0 0 1 1.53 4.922h26.884l15.43-66.74h-23.729z" data-original="#000000" class="active-path" data-old_color="#000000" fill="#FFFFFF"/><path d="m452.814 247.987 19.788-120.582h-28.009l-19.788 120.582z" data-original="#000000" class="active-path" data-old_color="#000000" fill="#FFFFFF"/><circle cx="342.918" cy="284.583" r="5.5" data-original="#000000" class="active-path" data-old_color="#000000" fill="#FFFFFF"/><path d="m406.418 284.083a5 5 0 0 0 -5-5h-41a5 5 0 0 0 0 10h41a5 5 0 0 0 5-5z" data-original="#000000" class="active-path" data-old_color="#000000" fill="#FFFFFF"/><circle cx="372.918" cy="304.583" r="5.5" data-original="#000000" class="active-path" data-old_color="#000000" fill="#FFFFFF"/><path d="m467.418 299.083h-10.769a5 5 0 0 0 0 10h10.769a5 5 0 0 0 0-10z" data-original="#000000" class="active-path" data-old_color="#000000" fill="#FFFFFF"/><path d="m434.2 299.083h-43.78a5 5 0 0 0 0 10h43.78a5 5 0 0 0 0-10z" data-original="#000000" class="active-path" data-old_color="#000000" fill="#FFFFFF"/><circle cx="252.481" cy="92.237" r="5.5" data-original="#000000" class="active-path" data-old_color="#000000" fill="#FFFFFF"/><path d="m188.981 92.737a5 5 0 0 0 5 5h41a5 5 0 0 0 0-10h-41a5 5 0 0 0 -5 5z" data-original="#000000" class="active-path" data-old_color="#000000" fill="#FFFFFF"/><circle cx="222.481" cy="72.237" r="5.5" data-original="#000000" class="active-path" data-old_color="#000000" fill="#FFFFFF"/><path d="m127.981 77.737h10.768a5 5 0 0 0 0-10h-10.768a5 5 0 0 0 0 10z" data-original="#000000" class="active-path" data-old_color="#000000" fill="#FFFFFF"/><path d="m161.2 77.737h43.78a5 5 0 0 0 0-10h-43.78a5 5 0 0 0 0 10z" data-original="#000000" class="active-path" data-old_color="#000000" fill="#FFFFFF"/></g> </svg>
